<?xml version="1.0" encoding="utf-8"?>
<!-- Generator: Adobe Illustrator 19.2.1, SVG Export Plug-In . SVG Version: 6.00 Build 0)  -->
<svg version="1.1" id="Layer_1" xmlns="http://www.w3.org/2000/svg" xmlns:xlink="http://www.w3.org/1999/xlink" x="0px" y="0px"
	 viewBox="0 0 340 75" style="enable-background:new 0 0 340 75;" xml:space="preserve">
<style type="text/css">
	.st0{fill:#040504;}
	.st1{fill:#B50F0F;}
	.st2{fill:url(#SVGID_1_);}
</style>
<g>
	<path d="M108.7,21.3l-0.1,6.5c1.1-1.9,2.5-3.7,4.4-5.4c1.9-1.6,3.7-2.4,5.4-2.4c1.3,0,2.5,0.1,3.5,0.4c0.3,0.5,0.5,1.3,0.5,2.2
		c0,1.4-0.3,2.8-0.9,4.2c-1.5-0.4-3-0.6-4.4-0.6c-3.5,0-6.3,1.7-8.6,5.1l-0.1,11.1V52l7,1c0.2,0.7,0.2,1.5,0,2.5
		c-2.7-0.1-5.7-0.2-9.1-0.2c-2.6,0-5.6,0-9.2,0.1c-0.3-0.8-0.3-1.6,0-2.5l5-0.7c0.2-2.3,0.3-5,0.3-8.1V26.8c0-0.8-0.1-1.6-0.2-2.3
		l-5-0.6c-0.2-0.6-0.2-1.4,0-2.4c2.9-0.2,6.6-0.7,10.9-1.3C108.4,20.5,108.6,20.9,108.7,21.3z"/>
	<path d="M142.3,36v-3.2c0-3.6-0.4-6.2-1.2-7.8c-0.8-1.6-2.2-2.4-4.1-2.4c-1.9,0-3.5,0.6-4.7,1.9c-1.2,1.2-2,3.4-2.4,6.4
		c-1.4,0.3-2.3,0.4-3,0.4c-1.6,0-2.6-0.6-2.9-1.8c0-2.9,1.2-5.2,3.7-6.8c2.5-1.7,5.6-2.5,9.3-2.5c4.1,0,7,0.8,8.7,2.5
		c1.7,1.7,2.6,4.7,2.6,9v17.9c0,1.1,0.1,2,0.2,2.7l5,0.6c0.2,0.6,0.2,1.4,0,2.4c-3,0.1-6.2,0.4-9.6,0.9c-0.3-0.3-0.5-0.8-0.6-1.3
		l-0.3-4.4c-3.5,4-7.4,6-11.7,6c-2.7,0-4.7-0.8-6.2-2.3c-1.5-1.5-2.3-3.6-2.3-6.2c0-3.9,1.8-6.8,5.3-8.8
		C131.6,37.2,136.3,36.2,142.3,36z M128.8,46.7c0,2.2,0.4,3.8,1.2,4.7c0.8,0.9,2.1,1.4,3.8,1.4c1.3,0,2.7-0.4,4.2-1.2
		c1.5-0.8,3-1.9,4.3-3.4v-9.9c-4.4,0.3-7.7,1-10,2.3C129.9,41.9,128.8,43.9,128.8,46.7z"/>
	<path d="M179.8,32.6c0-3.3-0.4-5.5-1.3-6.8c-0.9-1.3-2.3-2-4.3-2c-3.1,0-6.3,2.3-9.4,7V52l5.1,1c0.2,0.7,0.2,1.5,0,2.5
		c-2.7-0.1-5.4-0.2-8.2-0.2c-1.9,0-4.7,0-8.2,0.1c-0.3-0.8-0.3-1.6,0-2.5l5-0.7c0.2-2.3,0.3-5,0.3-8.1V26.8c0-0.8-0.1-1.6-0.2-2.3
		l-5-0.6c-0.2-0.6-0.2-1.4,0-2.4c2.9-0.2,6.6-0.7,10.9-1.3c0.4,0.4,0.6,0.8,0.6,1.3c-0.2,1.1-0.3,3-0.3,5.6
		c3.3-4.6,7.1-6.9,11.3-6.9c6.6,0,9.8,3.1,9.8,9.3V52l5.1,1c0.2,0.7,0.2,1.5,0,2.5c-2.7-0.1-5.4-0.2-8.2-0.2c-1.9,0-4.7,0-8.2,0.1
		c-0.3-0.8-0.3-1.6,0-2.5l5-0.7c0.2-2.3,0.3-5,0.3-8.1V32.6z"/>
	<path d="M200.2,13.7v9.1h8.9c0.1,0.5,0.1,0.9,0.1,1.1c0,0.4,0,0.8-0.1,1.3l-8.9,1.3V44c0,3.1,0.3,5.3,0.9,6.6
		c0.6,1.3,1.5,1.9,2.7,1.9c1.1,0,2.8-0.4,5.1-1.3c0.4,0.4,0.7,1.1,0.9,2.2c-1.3,0.8-2.2,1.3-2.9,1.7c-0.7,0.4-1.5,0.7-2.5,1
		c-1,0.3-2,0.4-3.1,0.4c-2.1,0-3.8-0.8-5.2-2.4c-1.3-1.6-2-4.1-2-7.5V25.8l-4.4-0.6c-0.1-0.4-0.1-0.8-0.1-1.1c0-0.3,0-0.8,0.1-1.4
		c1.2-0.2,2.2-0.6,3.1-1.1c0.9-0.5,1.6-1.3,2.2-2.2c0.6-1,1-1.8,1.4-2.5c0.3-0.7,0.7-1.8,1.2-3.2c0.4-0.1,0.8-0.2,1.4-0.2
		C199.4,13.5,199.8,13.6,200.2,13.7z"/>
	<path d="M217.2,14c0-2.8-0.1-4.9-0.2-6.2l-5-0.6c-0.2-0.6-0.2-1.4,0-2.4c2.8-0.2,6.4-0.7,10.8-1.3c0.4,0.4,0.6,0.8,0.6,1.3
		c-0.2,1.1-0.3,4.5-0.3,10.3v12c3.1-4.3,6.9-6.5,11.3-6.5c2.6,0,4.9,0.7,6.7,2c1.9,1.3,2.8,3.6,2.8,6.7V52l5.1,1
		c0.2,0.7,0.2,1.5,0,2.5c-2.7-0.1-5.4-0.2-8.1-0.2c-1.9,0-4.7,0-8.2,0.1c-0.3-0.8-0.3-1.6,0-2.5l5-0.7c0.2-2.3,0.3-5,0.3-8.1V32.4
		c0-3-0.4-5.1-1.1-6.4c-0.7-1.3-2.1-2-4-2c-1.6,0-3.3,0.6-5,1.8c-1.8,1.2-3.3,2.9-4.7,5.1V52l5.1,1c0.2,0.7,0.2,1.5,0,2.5
		c-2.7-0.1-5.4-0.2-8.1-0.2c-1.9,0-4.7,0-8.2,0.1c-0.3-0.8-0.3-1.6,0-2.5l5-0.7c0.2-2.3,0.3-5,0.3-8.1V14z"/>
</g>
<g>
	<path d="M275.9,15v37l5.1,1c0.2,0.7,0.2,1.5,0,2.5c-2.7-0.1-5.4-0.2-8.1-0.2c-1.9,0-4.7,0-8.2,0.1c-0.3-0.8-0.3-1.6,0-2.5l5-0.7
		c0.2-2.3,0.3-5,0.3-8.1V7.8l-5.2-0.6c-0.2-0.6-0.2-1.4,0-2.4c2.8-0.2,6.4-0.7,10.8-1.3c0.4,0.4,0.6,0.8,0.6,1.3
		C276,5.8,275.9,9.2,275.9,15z M276.5,36.9l13.3-12.8l-4.2-0.5c-0.2-0.7-0.2-1.5,0-2.5c2.3,0.2,4.5,0.3,6.5,0.3
		c1.6,0,3.8-0.1,6.6-0.2c0.3,0.8,0.3,1.6,0,2.4l-5,0.9L282.5,35l13.8,16.6l4.9,1.3c0.2,0.7,0.2,1.5,0,2.5c-2.7-0.1-5.3-0.2-8-0.2
		c-1.8,0-4.5,0-8.1,0.1c-0.3-0.8-0.3-1.7,0-2.5l4.2-0.6L276.5,36.9z"/>
	<path d="M322.1,36v-3.2c0-3.6-0.4-6.2-1.2-7.8c-0.8-1.6-2.2-2.4-4.1-2.4c-1.9,0-3.5,0.6-4.7,1.9c-1.2,1.2-2,3.4-2.4,6.4
		c-1.4,0.3-2.3,0.4-3,0.4c-1.6,0-2.6-0.6-2.9-1.8c0-2.9,1.2-5.2,3.7-6.8c2.5-1.7,5.6-2.5,9.3-2.5c4.1,0,7,0.8,8.7,2.5
		c1.7,1.7,2.6,4.7,2.6,9v17.9c0,1.1,0.1,2,0.2,2.7l5,0.6c0.2,0.6,0.2,1.4,0,2.4c-3,0.1-6.2,0.4-9.6,0.9c-0.3-0.3-0.5-0.8-0.6-1.3
		l-0.3-4.4c-3.5,4-7.4,6-11.7,6c-2.7,0-4.7-0.8-6.2-2.3c-1.5-1.5-2.3-3.6-2.3-6.2c0-3.9,1.8-6.8,5.3-8.8
		C311.4,37.2,316.2,36.2,322.1,36z M308.6,46.7c0,2.2,0.4,3.8,1.2,4.7c0.8,0.9,2.1,1.4,3.8,1.4c1.3,0,2.7-0.4,4.2-1.2
		c1.5-0.8,3-1.9,4.3-3.4v-9.9c-4.4,0.3-7.7,1-10,2.3C309.8,41.9,308.6,43.9,308.6,46.7z"/>
</g>
<g>
	<path class="st0" d="M260,31.6V52l5.1,1c0,0.2,0.1,0.4,0.1,0.6c0,0.2,0,0.4,0,0.6c0,0.2,0,0.4,0,0.7c0,0.2-0.1,0.5-0.1,0.7
		c-2.7-0.1-5.4-0.2-8.2-0.2c-1,0-2.1,0-3.5,0c-1.4,0-2.9,0.1-4.7,0.1c-0.1-0.4-0.2-0.8-0.2-1.2c0-0.4,0.1-0.8,0.2-1.3l5-0.7
		c0.1-1.2,0.1-2.4,0.2-3.8c0-1.3,0.1-2.8,0.1-4.3V30.7c0-2.8-0.1-4.9-0.2-6.2l-5-0.6c-0.1-0.2-0.1-0.6-0.1-1.1c0-0.2,0-0.4,0-0.6
		c0-0.2,0-0.4,0.1-0.7c2.9-0.2,6.5-0.6,10.9-1.3c0.4,0.4,0.6,0.8,0.6,1.3C260.1,22.5,260,25.9,260,31.6z"/>
</g>
<g>
	<path class="st0" d="M94.9,19.2c0.2-1,0.3-1.9,0.3-2.8c0-1.6-0.5-2.5-1.6-2.7c-4.1,0.2-6.3,3.2-6.5,9c-2.5-1.8-5.5-2.7-8.8-2.7
		c-3.5,0-6.5,1.1-9.2,3.3c-2.7,2.2-4,5.1-4,8.7c0,1.9,0.5,3.8,1.5,5.6c1,1.8,2.5,3.3,4.4,4.4l-4.2,7c0,1.1,0.4,2.3,1.3,3.5
		c0.9,1.2,2,1.9,3.3,2.1l11.9,1.1c2.4,0.2,4,0.8,4.8,1.9c0.8,1,1.2,2.7,1.2,4.9c0,2-1,3.6-3,4.7c-2,1.1-4.6,1.7-7.6,1.7
		c-0.7,0-1.4,0-2.1-0.1c0.4,1.5,1.3,2.5,2.5,3.1c4.5-0.2,8.1-1.3,10.8-3.3c3-2.3,4.6-5.5,4.6-9.7c0-2.4-0.6-4.4-1.9-5.9
		c-1.3-1.5-3.2-2.4-5.6-2.7L71,48.6l2.2-5.6c1.5,0.5,3.2,0.8,5.1,0.8c3.6,0,6.7-1.1,9.4-3.3c2.7-2.2,4.1-5,4.1-8.3
		c0-3.2-1.1-5.8-3.2-7.9c0.5-1.2,1.2-2.3,2.3-3.3C91.9,19.9,93.3,19.4,94.9,19.2z M83.8,38.4c-1.4,1.7-3.3,2.6-5.5,2.6
		c-2.3,0-4.1-0.9-5.5-2.6c-1.4-1.7-2.1-3.8-2.1-6.3c0-2.7,0.7-4.9,2.2-6.7c1.4-1.8,3.2-2.7,5.4-2.7c2.3,0,4.1,0.9,5.5,2.7
		c1.4,1.8,2.1,4,2.1,6.8C86,34.5,85.3,36.6,83.8,38.4z"/>
</g>
<circle class="st1" cx="256.3" cy="10.4" r="4"/>
<g>
	<g>
		
			<linearGradient id="SVGID_1_" gradientUnits="userSpaceOnUse" x1="29.782" y1="27.2936" x2="29.782" y2="72.8886" gradientTransform="matrix(1 0 0 1 0 1)">
			<stop  offset="0" style="stop-color:#C41212"/>
			<stop  offset="1" style="stop-color:#8C0000"/>
		</linearGradient>
		<path class="st2" d="M11.9,35.1c1.6,1.2,3.3,2.3,5,3.2c0.1-0.1-0.1-0.3,0.3-0.3c0.5,0.2,0.9,0.4,1.3,0.7c0.4,0.3,0.8,0.5,1.3,0.6
			l0.2-0.2c0.4,0.2,0.7,0.4,1.1,0.6c0.4,0.2,0.8,0.4,1.2,0.6c1.6,0.4,3.1,0.7,4.8,0.8c0-0.1,0-0.2,0.1-0.2c0.7,0,1.6,0.1,2.6,0.2
			c0.1,0,0.3,0,0.4-0.1c0.1-0.1,0.1-0.1,0.2-0.2c0.4,0,0.8,0,1.2,0c2.3-0.5,4.5-1.2,6.6-2.3c2.1-1.1,4-2.6,5.7-4.3
			c0.3-0.4,0.7-0.8,0.9-1.2c0.3-0.4,0.6-0.8,0.9-1.2c0.9-1.1,2.2-2.3,3.1-3.4c-0.4-0.2-0.1-1,0-1.7c0.2-0.8,0.3-1.4-0.2-1.4
			c0.5-0.7,1.3-1.8,1.1-2c-0.5-0.6-0.8-1.5,0.1-3.7c0.4-0.8,1.4-1.9,1.4-2.2c0.1-0.5-1,0.7-1,0.2c-0.9,1.4-1.8,2.8-2.7,4.1
			c-0.9,1.3-1.8,2.6-2.7,3.8l-0.3,0.5L44,26.6l-0.7,0.9c-0.5,0.5-1,1.1-1.5,1.6c-1,1-2.2,1.9-3.4,2.6c-0.2,0.2-0.5,0.4-1,0.7
			c-0.2,0.1-0.5,0.3-0.8,0.4c-0.1,0.1-0.3,0.2-0.5,0.2c-0.2,0.1-0.3,0.1-0.5,0.2c-0.4,0.1-0.7,0.3-1.2,0.4c-0.4,0.1-0.9,0.2-1.3,0.4
			c-0.5,0.1-0.9,0.2-1.4,0.3c-0.2,0-0.5,0.1-0.7,0.1c-0.2,0-0.5,0-0.7,0c-2,0.1-4.1-0.2-5.8-0.7c-0.4-0.1-0.9-0.3-1.2-0.4
			c-0.4-0.1-0.8-0.3-1.1-0.4c-0.3-0.1-0.6-0.3-0.9-0.4c-0.3-0.1-0.5-0.3-0.7-0.4l-0.3-0.1c-1.7-0.9-3.8-2.2-5.3-3
			c-0.4-0.2-0.7-0.3-1.1-0.5c-0.4-0.2-0.8-0.3-1.1-0.6c0.2,0.4,0.3,0.7,0.5,1c-0.2-0.1-0.3-0.3-0.4-0.4c-0.1-0.1-0.3-0.3-0.4-0.4
			c-0.3-0.2-0.5-0.4-0.6-0.5c-1.4-1.1-1.1-0.1-1,0.9c0.2,0.5-0.6,0.3-0.2,1.1c-0.2-0.2-0.4-0.4-0.5-0.5c-0.1-0.2-0.3-0.3-0.5-0.6
			c-0.1,0.1,0.2,0.4,0.5,0.7c0.3,0.3,0.6,0.6,0.3,0.5c-0.4-0.5-0.9-0.9-1.3-1.3c-0.1,0.2,0.3,0.6,0.6,1c0.3,0.4,0.6,0.7,0.5,0.8
			c-0.1-0.1-0.4-0.5-0.6-0.8c-0.2-0.3-0.4-0.6-0.6-0.6c-0.1,0,0.3,0.5,0.5,0.7C8.6,29,8,28.5,7.7,28.4c-0.3-0.1-0.4,0.2,0.1,1
			c-0.4-0.5-0.8-1.3-1.3-1.8c0,0,0,0,0,0c0.2,0.3,0.5,0.8,0.7,1l-0.7-0.9c0,0.1,0,0.2,0,0.3c0.1,0.2,0.3,0.5,0.5,0.7l-0.5-0.6
			c0,0.2,0.1,0.5,0.1,0.7c0.3,0.9,0.7,1.7,1,2.1C8.9,32.5,10.3,33.8,11.9,35.1z M53.1,55.3c-0.9-1.8-2.1-3.3-3.3-4.6
			c-1.2-1.3-2.6-2.5-4.1-3.5c-2.9-2-6.1-3.6-10-4.5c-0.2,0-0.4,0-0.7-0.1c-0.3,0-0.6,0-1-0.1c-0.1,0-0.2,0-0.3,0c-0.1,0-0.2,0-0.3,0
			c-0.2,0-0.4,0-0.6,0c-0.4,0-0.9,0-1.4,0c-2,0.2-4.5,0.5-7,1.4c-2.4,0.9-4.7,2.2-6.4,3.4c-0.4,0.3-0.9,0.6-1.3,0.9
			c-0.4,0.3-0.7,0.6-1.1,0.9c-0.3,0.3-0.6,0.5-0.9,0.7c-0.3,0.2-0.5,0.4-0.7,0.6l-0.3,0.3c-1.6,1.5-3.4,3.6-4.2,5.2
			c-0.4,0.8-0.7,1.6-1,2.4c0.3-0.2,0.7-0.4,1-0.6c-0.3,0.3-0.5,0.7-0.7,1c-0.2,0.3-0.3,0.6-0.4,0.7c-0.7,1.7,0.2,1.1,1,0.8
			c0.5-0.3,0.4,0.5,1.1,0c-0.3,0.4-0.5,0.7-0.8,1.1c0.2,0.2,0.9-1.4,1-0.9c-0.4,0.4-0.6,0.9-0.9,1.4c0.4,0,1.2-1.5,1.4-1.2
			c-0.1,0.3-1.2,1-0.9,1.3c0.1,0.1,0.4-0.4,0.5-0.6c-0.4,0.7-0.7,1.3-0.7,1.6c0,0.3,0.3,0.3,0.8-0.2c-0.3,0.4-0.8,1-1.1,1.4
			c0,0,0,0,0,0c0.2-0.2,0.5-0.6,0.6-0.8L10,64.4c0.1,0,0.1,0,0.2-0.1c0.2-0.2,0.3-0.3,0.5-0.5l-0.4,0.5c0.2-0.1,0.4-0.1,0.6-0.2
			c0.6-0.5,1.3-0.9,1.5-1.2c1.9-2.5,4-4.9,6.1-6.9c-0.1-0.1-0.3-0.1-0.2-0.3c0.2-0.3,0.6-0.5,0.9-0.7c0.3-0.2,0.6-0.3,0.9-0.6
			L20,54.2c0.5-0.3,1.1-0.6,1.7-0.9c0.4-0.4,0.9-0.7,1.4-1c0.4-0.3,0.9-0.6,1.4-0.9c-0.1-0.1-0.1-0.1,0-0.2c0.4-0.3,1-0.4,1.6-0.7
			c0.1-0.1,0.2-0.1,0.3-0.1c0.1-0.1,0-0.2,0-0.2c0.3-0.1,0.5-0.1,0.8-0.2l0.6-0.3l0.3-0.1l0.3-0.1c0.4-0.1,0.8-0.3,1.2-0.4
			c0.4-0.1,0.8-0.2,1.2-0.3l0.6-0.2c0.2,0,0.4-0.1,0.6-0.1c0.4-0.1,0.9-0.1,1.3-0.2c0.2,0,0.4,0,0.6,0c0.2,0,0.4,0,0.6,0
			c0.4,0,0.9,0,1.3,0.1c0.2,0,0.5,0.1,0.7,0.1c0.2,0.1,0.5,0.1,0.7,0.2c0.8,0.1,1.7,0.2,2.5,0.5c1.1,0.5,2.4,1.4,3.3,2.2
			c0.2-0.4,0.9-0.2,1.6-0.1c0.7,0.2,1.4,0.3,1.4-0.2c0.3,0.3,0.7,0.6,1,0.9c0.3,0.3,0.6,0.5,0.7,0.4c0.3-0.2,0.8-0.3,1.3-0.1
			c0.3,0.1,0.6,0.2,1,0.4c0.4,0.2,0.8,0.6,1.3,1c0.3,0.4,0.6,0.9,0.9,1.5c0.2,0.5,0.4,1,0.6,1.1c0.1,0.1,0.2,0,0.2,0
			c0-0.1,0-0.3,0-0.5C52.9,55.5,52.8,55.1,53.1,55.3z"/>
	</g>
</g>
</svg>
